<svg width="20" height="15" viewBox="0 0 20 15" fill="none" xmlns="http://www.w3.org/2000/svg">
<path d="M19 1.90735e-06L0.999975 1.90735e-06C0.817734 0.000573158 0.639099 0.0508366 0.483299 0.14538C0.327499 0.239923 0.200434 0.375167 0.11578 0.536554C0.031126 0.697942 -0.00790977 0.879362 0.00287247 1.06129C0.0136547 1.24321 0.0738487 1.41875 0.176975 1.569L9.17698 14.569C9.54998 15.108 10.448 15.108 10.822 14.569L19.822 1.569C19.9262 1.41906 19.9872 1.24343 19.9986 1.06121C20.01 0.878981 19.9712 0.697124 19.8865 0.535395C19.8017 0.373666 19.6743 0.238248 19.518 0.143858C19.3617 0.049468 19.1826 -0.000286102 19 1.90735e-06Z" fill="black"/>
</svg>
