<svg width="28" height="28" viewBox="0 0 28 28" fill="none" xmlns="http://www.w3.org/2000/svg">
<path d="M24.0567 9.85817C22.8317 4.46817 18.13 2.0415 14 2.0415C14 2.0415 14 2.0415 13.9883 2.0415C9.86999 2.0415 5.15666 4.4565 3.93166 9.8465C2.56666 15.8665 6.25332 20.9648 9.58999 24.1732C10.8267 25.3632 12.4133 25.9582 14 25.9582C15.5867 25.9582 17.1733 25.3632 18.3983 24.1732C21.735 20.9648 25.4217 15.8782 24.0567 9.85817ZM14 15.7032C11.97 15.7032 10.325 14.0582 10.325 12.0282C10.325 9.99817 11.97 8.35317 14 8.35317C16.03 8.35317 17.675 9.99817 17.675 12.0282C17.675 14.0582 16.03 15.7032 14 15.7032Z" fill="#62C711"/>
</svg>
