<svg width="28" height="18" viewBox="0 0 28 18" fill="none" xmlns="http://www.w3.org/2000/svg">
<mask id="mask0_73_77" style="mask-type:luminance" maskUnits="userSpaceOnUse" x="1" y="10" width="26" height="8">
<path d="M1.3761 10.1523H26.6239V17.9729H1.3761V10.1523Z" fill="white"/>
</mask>
<g mask="url(#mask0_73_77)">
<path d="M26.4547 17.6459L17.6672 10.331C17.4105 10.1175 17.0379 10.1175 16.7812 10.331L14.4137 12.3019C14.1752 12.5002 13.8303 12.5002 13.5918 12.3019L11.2248 10.331C10.9681 10.1175 10.5955 10.1175 10.3382 10.331L1.5513 17.6459C1.43024 17.7466 1.5012 17.9438 1.65879 17.9438H26.3472C26.5043 17.9438 26.5752 17.7466 26.4547 17.6459Z" fill="#62C711"/>
</g>
<mask id="mask1_73_77" style="mask-type:luminance" maskUnits="userSpaceOnUse" x="0" y="1" width="10" height="16">
<path d="M0 1.06836H9.39122V16.8315H0V1.06836Z" fill="white"/>
</mask>
<g mask="url(#mask1_73_77)">
<path d="M9.24094 8.67987L0.279184 1.21991C0.169601 1.12859 0.00366211 1.20687 0.00366211 1.34932V16.5949C0.00366211 16.7373 0.169601 16.8151 0.279184 16.7243L9.24094 9.26431C9.42358 9.11246 9.42358 8.83172 9.24094 8.67987Z" fill="#62C711"/>
</g>
<path d="M1.5513 0.29796L13.6664 10.3827C13.8616 10.545 14.1444 10.545 14.3391 10.3827L26.4547 0.29796C26.5752 0.197248 26.5043 0 26.3472 0H1.65879C1.5012 0 1.43024 0.197248 1.5513 0.29796Z" fill="#62C711"/>
<mask id="mask2_73_77" style="mask-type:luminance" maskUnits="userSpaceOnUse" x="18" y="1" width="11" height="16">
<path d="M18.6089 1.06836H28.0001V16.8315H18.6089V1.06836Z" fill="white"/>
</mask>
<g mask="url(#mask2_73_77)">
<path d="M27.7268 1.21991L18.765 8.67987C18.5824 8.83172 18.5824 9.11246 18.765 9.26431L27.7268 16.7243C27.8364 16.8151 28.0018 16.7373 28.0018 16.5949V1.34932C28.0018 1.20687 27.8364 1.12859 27.7268 1.21991Z" fill="#62C711"/>
</g>
</svg>
