<svg width="20" height="29" viewBox="0 0 20 29" fill="none" xmlns="http://www.w3.org/2000/svg">
<mask id="mask0_87_185" style="mask-type:luminance" maskUnits="userSpaceOnUse" x="0" y="0" width="20" height="29">
<path d="M0 0H20V28.6582H0V0Z" fill="white"/>
</mask>
<g mask="url(#mask0_87_185)">
<path fill-rule="evenodd" clip-rule="evenodd" d="M10.0002 0.00948334C15.5231 0.00948334 20.0004 4.48675 20.0004 10.0099C20.0004 11.9315 19.4579 13.7261 18.5183 15.2499C17.3915 17.1167 16.2642 18.9838 15.1374 20.851C13.7648 23.0819 12.6541 24.8875 11.2817 27.1186C10.0717 29.086 9.98995 29.1342 8.77353 27.1569C7.40798 24.937 6.25987 23.0707 4.89432 20.851C3.76973 19.0048 2.64572 17.1588 1.52114 15.3131C0.557832 13.7756 0 11.9579 0 10.0099C0 4.48675 4.47727 0.00948334 10.0002 0.00948334ZM10.0002 5.02314C12.4761 5.02314 14.4833 7.03039 14.4833 9.5063C14.4833 11.9824 12.4763 13.9894 10.0002 13.9894C7.5241 13.9894 5.51704 11.9822 5.51704 9.5063C5.51704 7.03039 7.52429 5.02314 10.0002 5.02314Z" fill="#FAFF00"/>
<path fill-rule="evenodd" clip-rule="evenodd" d="M10.0002 0.00948334C15.5231 0.00948334 20.0004 4.48675 20.0004 10.0099C20.0004 11.9315 19.4579 13.7261 18.5183 15.2499C17.3915 17.1167 16.2642 18.9838 15.1374 20.851C13.7648 23.0819 12.6541 24.8875 11.2817 27.1186C10.0717 29.086 9.98995 29.1342 8.77353 27.1569C7.40798 24.937 6.25987 23.0707 4.89432 20.851C3.76973 19.0048 2.64572 17.1588 1.52114 15.3131C0.557832 13.7756 0 11.9579 0 10.0099C0 4.48675 4.47727 0.00948334 10.0002 0.00948334ZM10.0002 5.02314C12.4761 5.02314 14.4833 7.03039 14.4833 9.5063C14.4833 11.9824 12.4763 13.9894 10.0002 13.9894C7.5241 13.9894 5.51704 11.9822 5.51704 9.5063C5.51704 7.03039 7.52429 5.02314 10.0002 5.02314Z" fill="#FAFF00"/>
</g>
</svg>
