<svg width="54" height="54" viewBox="0 0 54 54" fill="none" xmlns="http://www.w3.org/2000/svg">
<path d="M39.645 24.1875C38.6775 24.1875 37.9125 23.4 37.9125 22.455C37.9125 21.6225 37.08 19.89 35.685 18.3825C34.3125 16.92 32.805 16.065 31.545 16.065C30.5775 16.065 29.8125 15.2775 29.8125 14.3325C29.8125 13.3875 30.6 12.6 31.545 12.6C33.795 12.6 36.1575 13.815 38.2275 15.9975C40.1625 18.045 41.4 20.5875 41.4 22.4325C41.4 23.4 40.6125 24.1875 39.645 24.1875Z" fill="#0E6E34"/>
<path d="M47.7675 24.1875C46.8 24.1875 46.035 23.4 46.035 22.455C46.035 14.4675 39.5325 7.9875 31.5675 7.9875C30.6 7.9875 29.835 7.2 29.835 6.255C29.835 5.31 30.6 4.5 31.545 4.5C41.445 4.5 49.5 12.555 49.5 22.455C49.5 23.4 48.7125 24.1875 47.7675 24.1875Z" fill="#0E6E34"/>
<path d="M24.8625 33.6375L20.7 37.8C19.8225 38.6775 18.4275 38.6775 17.5275 37.8225C17.28 37.575 17.0325 37.35 16.785 37.1025C14.4675 34.7625 12.375 32.31 10.5075 29.745C8.6625 27.18 7.1775 24.615 6.0975 22.0725C5.04 19.5075 4.5 17.055 4.5 14.715C4.5 13.185 4.77 11.7225 5.31 10.3725C5.85 9 6.705 7.74 7.8975 6.615C9.3375 5.1975 10.9125 4.5 12.5775 4.5C13.2075 4.5 13.8375 4.635 14.4 4.905C14.985 5.175 15.5025 5.58 15.9075 6.165L21.1275 13.5225C21.5325 14.085 21.825 14.6025 22.0275 15.0975C22.23 15.57 22.3425 16.0425 22.3425 16.47C22.3425 17.01 22.185 17.55 21.87 18.0675C21.5775 18.585 21.15 19.125 20.61 19.665L18.9 21.4425C18.6525 21.69 18.54 21.9825 18.54 22.3425C18.54 22.5225 18.5625 22.68 18.6075 22.86C18.675 23.04 18.7425 23.175 18.7875 23.31C19.1925 24.0525 19.89 25.02 20.88 26.19C21.8925 27.36 22.9725 28.5525 24.1425 29.745C24.3675 29.97 24.615 30.195 24.84 30.42C25.74 31.2975 25.7625 32.7375 24.8625 33.6375Z" fill="#0E6E34"/>
<path d="M49.4325 41.2425C49.4325 41.8725 49.32 42.525 49.095 43.155C49.0275 43.335 48.96 43.515 48.87 43.695C48.4875 44.505 47.9925 45.27 47.34 45.99C46.2375 47.205 45.0225 48.0825 43.65 48.645C43.6275 48.645 43.605 48.6675 43.5825 48.6675C42.255 49.2075 40.815 49.5 39.2625 49.5C36.9675 49.5 34.515 48.96 31.9275 47.8575C29.34 46.755 26.7525 45.27 24.1875 43.4025C23.31 42.75 22.4325 42.0975 21.6 41.4L28.9575 34.0425C29.5875 34.515 30.15 34.875 30.6225 35.1225C30.735 35.1675 30.87 35.235 31.0275 35.3025C31.2075 35.37 31.3875 35.3925 31.59 35.3925C31.9725 35.3925 32.265 35.2575 32.5125 35.01L34.2225 33.3225C34.785 32.76 35.325 32.3325 35.8425 32.0625C36.36 31.7475 36.8775 31.59 37.44 31.59C37.8675 31.59 38.3175 31.68 38.8125 31.8825C39.3075 32.085 39.825 32.3775 40.3875 32.76L47.835 38.0475C48.42 38.4525 48.825 38.925 49.0725 39.4875C49.2975 40.05 49.4325 40.6125 49.4325 41.2425Z" fill="#0E6E34"/>
</svg>
