<svg width="26" height="26" viewBox="0 0 26 26" fill="none" xmlns="http://www.w3.org/2000/svg">
<rect width="26" height="26" rx="2" fill="url(#paint0_linear_2031_1661)"/>
<path d="M10.4877 17.5737L6.69471 13.7807C6.50611 13.5986 6.25351 13.4978 5.99131 13.5C5.72911 13.5023 5.4783 13.6075 5.29289 13.7929C5.10749 13.9783 5.00232 14.2291 5.00004 14.4913C4.99776 14.7535 5.09855 15.0061 5.28071 15.1947L9.78071 19.6947C9.96824 19.8822 10.2225 19.9875 10.4877 19.9875C10.7529 19.9875 11.0072 19.8822 11.1947 19.6947L22.1947 8.69471C22.3769 8.50611 22.4777 8.25351 22.4754 7.99131C22.4731 7.72911 22.3679 7.4783 22.1825 7.29289C21.9971 7.10749 21.7463 7.00232 21.4841 7.00004C21.2219 6.99776 20.9693 7.09855 20.7807 7.28071L10.4877 17.5737Z" fill="white"/>
<defs>
<linearGradient id="paint0_linear_2031_1661" x1="0.482422" y1="6.15054" x2="26.3009" y2="6.6685" gradientUnits="userSpaceOnUse">
<stop stop-color="#62C711"/>
<stop offset="1" stop-color="#0E6E34"/>
</linearGradient>
</defs>
</svg>
