<svg width="89" height="87" viewBox="0 0 89 87" fill="none" xmlns="http://www.w3.org/2000/svg">
<mask id="mask0_157_2556" style="mask-type:luminance" maskUnits="userSpaceOnUse" x="44" y="56" width="35" height="31">
<path d="M44.7617 56.1217H78.7202V86.9999H44.7617V56.1217Z" fill="white"/>
</mask>
<g mask="url(#mask0_157_2556)">
<path d="M76.5053 67.6236C76.3926 67.4299 75.5098 65.8991 74.1998 63.63L59.6857 63.7509V56.2438L44.8652 71.5738L59.6857 86.9025V79.3015L74.2714 79.2464C76.2987 79.1161 78.0279 76.6755 78.0279 76.6755C78.7756 75.2387 79.568 72.9601 76.5053 67.6236Z" fill="white"/>
</g>
<path d="M61.2344 38.7809C61.2344 38.7809 77.6079 67.1423 78.1127 68.0109C80.9852 72.9918 80.1388 75.1306 79.2197 77.0488L86.087 64.9177C88.6226 60.5273 89.8164 57.1676 87.2808 52.7726L74.7037 30.9991L61.2391 38.7715L61.2344 38.7809Z" fill="white"/>
<path d="M47.4774 7.17722C47.3647 7.36974 46.4819 8.90168 45.1719 11.1708L52.5346 23.6811L46.0323 27.4328L66.7153 32.6015L72.5789 12.1029L65.9957 15.904L58.6553 3.29983C57.5295 1.61059 54.5525 1.33121 54.5525 1.33121C52.9313 1.40399 50.5624 1.85829 47.4727 7.17722H47.4774Z" fill="white"/>
<mask id="mask1_157_2556" style="mask-type:luminance" maskUnits="userSpaceOnUse" x="16" y="0" width="39" height="36">
<path d="M16.5137 0H54.3789V35.0855H16.5137V0Z" fill="white"/>
</mask>
<g mask="url(#mask1_157_2556)">
<path d="M30.1345 34.8225C30.1345 34.8225 46.5081 6.46113 47.0128 5.59127C49.8865 0.610418 52.1651 0.273509 54.2851 0.111511L40.3486 0.227727C35.2774 0.227727 31.7698 0.872197 29.2342 5.26727L16.6699 27.049L30.1345 34.8225Z" fill="white"/>
</g>
<path d="M9.51989 62.7202C9.74058 62.7202 11.5108 62.7202 14.131 62.7202L21.2823 50.0878L27.7857 53.8396L21.9221 33.341L1.23804 38.5144L7.82243 42.3155L0.577131 54.9748C-0.324423 56.7931 0.923431 59.5131 0.923431 59.5131C1.79212 60.883 3.37336 62.7014 9.52458 62.7202H9.51989Z" fill="white"/>
<path d="M42.1371 63.9176H8.38046C2.62953 63.9176 1.20207 62.1121 0 60.356L7.06921 72.3661C9.60483 76.7565 11.9151 79.4717 16.9898 79.4717L42.1371 79.4635V63.9129V63.9176Z" fill="white"/>
</svg>
