<svg width="20" height="15" viewBox="0 0 20 15" fill="none" xmlns="http://www.w3.org/2000/svg">
<path d="M18.9994 1.71661e-05L0.999426 1.71661e-05C0.817184 0.000588417 0.63855 0.0508518 0.48275 0.145395C0.32695 0.239939 0.199884 0.375182 0.115231 0.53657C0.0305767 0.697957 -0.00845909 0.879377 0.00232315 1.0613C0.0131054 1.24322 0.0732994 1.41876 0.176426 1.56902L9.17643 14.569C9.54943 15.108 10.4474 15.108 10.8214 14.569L19.8214 1.56902C19.9256 1.41907 19.9867 1.24345 19.9981 1.06122C20.0094 0.878996 19.9706 0.697139 19.8859 0.53541C19.8012 0.373681 19.6738 0.238263 19.5175 0.143873C19.3612 0.0494833 19.182 -0.000270844 18.9994 1.71661e-05Z" fill="black"/>
</svg>
