<svg width="33" height="33" viewBox="0 0 33 33" fill="none" xmlns="http://www.w3.org/2000/svg">
<path d="M27.1663 16.5V24.5C27.1663 27.4455 24.7785 29.8333 21.833 29.8333H11.1663C8.22082 29.8333 5.83301 27.4455 5.83301 24.5V16.5" stroke="#0E6E34" stroke-width="2.5" stroke-linejoin="round"/>
<path d="M22.8586 3.16675H10.142C7.71881 3.16675 5.5398 4.82642 4.63987 7.35748L3.62922 10.1999C3.32329 11.0603 3.11182 11.9811 3.33496 12.8666C3.86342 14.9638 5.57793 16.5001 7.61139 16.5001C10.066 16.5001 12.0558 14.2615 12.0558 11.5001C12.0558 14.2615 14.0457 16.5001 16.5003 16.5001C18.9549 16.5001 20.9447 14.2615 20.9447 11.5001C20.9447 14.2615 22.9346 16.5001 25.3892 16.5001C27.4226 16.5001 29.1371 14.9638 29.6656 12.8666C29.8887 11.9811 29.6773 11.0603 29.3713 10.1999L28.3607 7.35748C27.4608 4.82642 25.2817 3.16675 22.8586 3.16675Z" stroke="#0E6E34" stroke-width="2.5" stroke-linejoin="round"/>
<path d="M12.5 25.8333C12.5 23.6241 14.2909 21.8333 16.5 21.8333C18.7091 21.8333 20.5 23.6241 20.5 25.8333V29.8333H12.5V25.8333Z" stroke="#0E6E34" stroke-width="2.5" stroke-linejoin="round"/>
</svg>
