<svg width="166" height="50" viewBox="0 0 166 50" fill="none" xmlns="http://www.w3.org/2000/svg">
<path d="M59.4775 11.1604L56.8364 11.1747L56.9231 21.4377L54.6342 21.45L54.5476 11.1871L51.9065 11.2013L51.8891 9.13022L59.46 9.08934L59.4775 11.1604Z" fill="white"/>
<path d="M68.3203 21.3761L67.2597 18.7929L62.5234 18.8185L61.5065 21.4129L59.0239 21.4263L63.973 9.06497L65.7689 9.05528L70.7853 21.3628L68.3203 21.3761ZM63.2288 16.8544L66.5741 16.8364L64.8639 12.4073L63.2288 16.8544Z" fill="white"/>
<path d="M72.0523 9.02135L75.4504 9.003C76.7416 8.99603 77.7419 9.29884 78.4514 9.91143C79.2319 10.5976 79.627 11.5201 79.6368 12.6789C79.6476 13.961 79.198 14.9313 78.288 15.5896C77.938 15.8504 77.5111 16.0314 77.0072 16.1328L80.7133 21.3092L77.861 21.3246L74.6852 16.3857L74.4034 16.3873L74.4453 21.3431L72.1564 21.3554L72.0523 9.02135ZM74.3577 10.9691L74.3891 14.686L75.0405 14.6825C75.2283 14.6815 75.4102 14.6682 75.586 14.6425C75.7735 14.6046 76.0136 14.5354 76.3062 14.4352C76.5987 14.3227 76.8319 14.1304 77.0056 13.8582C77.191 13.5736 77.282 13.2218 77.2784 12.8026C77.2749 12.3835 77.184 12.0388 77.0056 11.7685C76.8271 11.4859 76.5908 11.2961 76.2965 11.1991C76.0021 11.0897 75.7668 11.0232 75.5905 10.9995C75.4142 10.9758 75.2322 10.9644 75.0444 10.9654L74.3577 10.9691Z" fill="white"/>
<path d="M88.1794 16.7382L88.1619 14.6671L93.5496 14.638L93.5509 14.786C93.5695 16.9927 93.0087 18.697 91.8685 19.899C90.8447 20.9895 89.4583 21.5394 87.7094 21.5488C85.9252 21.5585 84.5003 21.0114 83.4345 19.9076C82.2621 18.6934 81.6678 17.1124 81.6513 15.1646C81.6357 13.3154 82.198 11.7836 83.3381 10.5693C84.5012 9.30549 86.0395 8.66843 87.9527 8.6581C88.9857 8.65252 89.8913 8.86338 90.6696 9.29068C91.5775 9.76659 92.3175 10.5146 92.8895 11.5348L90.9095 12.6736C90.5872 12.0342 90.1253 11.5497 89.5238 11.2201C89.0287 10.9639 88.4759 10.8374 87.8655 10.8407C86.7622 10.8467 85.8614 11.2152 85.1633 11.9464C84.3836 12.7519 83.9995 13.8389 84.0111 15.2073C84.022 16.5017 84.4182 17.5414 85.1995 18.3262C85.898 19.0251 86.7695 19.3718 87.8142 19.3661C88.7298 19.3612 89.4965 19.1105 90.1145 18.614C90.674 18.1548 91.0385 17.5241 91.2078 16.7218L88.1794 16.7382Z" fill="white"/>
<path d="M102.123 8.85898L102.14 10.9301L97.9146 10.9529L97.9379 13.7082L101.987 13.6863L102.005 15.7574L97.9554 15.7793L97.9838 19.1448L102.209 19.122L102.227 21.1931L95.7124 21.2282L95.6083 8.89416L102.123 8.85898Z" fill="white"/>
<path d="M111.077 10.8818L108.436 10.8961L108.523 21.1591L106.234 21.1714L106.147 10.9084L103.506 10.9227L103.489 8.8516L111.06 8.81072L111.077 10.8818Z" fill="white"/>
<path d="M118.944 15.9248L118.938 15.1852L123.868 15.1585C123.882 16.7858 123.494 18.1379 122.705 19.2147C121.683 20.601 120.216 21.2994 118.303 21.3097C116.566 21.3191 115.111 20.729 113.939 19.5395C112.778 18.3499 112.191 16.8366 112.175 14.9998C112.16 13.1876 112.734 11.6742 113.897 10.4597C115.073 9.23288 116.523 8.61479 118.249 8.60547C119.598 8.59818 120.829 9.03537 121.94 9.91702C122.483 10.3579 122.957 10.8731 123.361 11.4627L122.749 11.9838C122.463 11.4799 122.084 11.0258 121.611 10.6215C120.618 9.76389 119.493 9.33846 118.237 9.34524C116.735 9.35336 115.478 9.90876 114.466 11.0115C113.465 12.1141 112.972 13.4544 112.985 15.0324C112.998 16.5857 113.508 17.9021 114.515 18.9816C115.522 20.0487 116.777 20.5782 118.279 20.5701C119.206 20.5651 120.026 20.3572 120.739 19.9466C121.463 19.5235 121.999 19.0275 122.346 18.4585C122.809 17.6916 123.06 16.8396 123.099 15.9024L118.944 15.9248Z" fill="white"/>
<path d="M132.272 21.0308L131.391 21.0356L127.539 15.2312L127.187 15.2331L127.236 21.058L126.461 21.0622L126.357 8.72812L128.047 8.719C129.116 8.71323 129.945 8.91834 130.535 9.33432C131.35 9.92168 131.763 10.8009 131.772 11.9721C131.778 12.6501 131.625 13.2612 131.313 13.8054C131 14.3372 130.505 14.7282 129.826 14.9784C129.381 15.1411 128.901 15.2238 128.384 15.2266L132.272 21.0308ZM127.138 9.46362L127.181 14.4934L128.307 14.4873C129.141 14.4828 129.79 14.2574 130.256 13.8111C130.734 13.3647 130.969 12.747 130.962 11.958C130.954 10.9224 130.601 10.2093 129.905 9.81853C129.493 9.57419 128.893 9.45414 128.106 9.45839L127.138 9.46362Z" fill="white"/>
<path d="M135.545 10.3614C136.708 9.12222 138.147 8.49803 139.861 8.48878C141.574 8.47952 143.023 9.08812 144.208 10.3146C145.392 11.541 145.991 13.0419 146.006 14.8171C146.021 16.5923 145.447 18.0995 144.284 19.3386C143.12 20.5654 141.682 21.1834 139.968 21.1927C138.242 21.202 136.788 20.5996 135.604 19.3855C134.431 18.159 133.837 16.6581 133.822 14.8829C133.807 13.1077 134.382 11.6005 135.545 10.3614ZM136.18 18.8646C137.199 19.9317 138.459 20.4611 139.962 20.453C141.464 20.4449 142.716 19.9019 143.716 18.8239C144.716 17.7336 145.21 16.3994 145.196 14.8215C145.183 13.2312 144.667 11.9025 143.649 10.8354C142.63 9.75599 141.369 9.22034 139.867 9.22845C138.365 9.23656 137.113 9.78577 136.113 10.8761C135.112 11.9541 134.619 13.2882 134.632 14.8785C134.646 16.4565 135.162 17.7852 136.18 18.8646Z" fill="white"/>
<path d="M148.486 8.60864L149.261 8.60445L149.326 16.3156C149.331 16.9689 149.365 17.4927 149.427 17.8869C149.501 18.2687 149.639 18.6316 149.841 18.9757C150.151 19.4919 150.559 19.8595 151.065 20.0787C151.584 20.2855 152.089 20.3875 152.582 20.3849C153.075 20.3822 153.573 20.2747 154.076 20.0624C154.591 19.8377 154.999 19.4657 155.299 18.9463C155.496 18.6 155.622 18.2356 155.678 17.8532C155.745 17.4583 155.775 16.9342 155.77 16.2808L155.705 8.56966L156.479 8.56547L156.545 16.2766C156.551 17.0409 156.515 17.6514 156.437 18.108C156.358 18.5645 156.18 19.0093 155.902 19.4423C155.184 20.5558 154.079 21.1165 152.589 21.1246C151.098 21.1326 149.984 20.5838 149.247 19.4783C148.961 19.0483 148.776 18.6055 148.69 18.1498C148.604 17.6941 148.558 17.0841 148.551 16.3198L148.486 8.60864Z" fill="white"/>
<path d="M161.989 15.0082L160.474 15.0164L160.524 20.8783L159.749 20.8825L159.645 8.54838L161.916 8.53612C162.914 8.53073 163.738 8.80984 164.388 9.37344C165.039 9.92471 165.368 10.712 165.377 11.7352C165.385 12.7461 165.081 13.5429 164.464 14.1257C163.847 14.7084 163.021 15.0026 161.989 15.0082ZM160.426 9.28387L160.468 14.2767L162.017 14.2683C162.792 14.2641 163.412 14.0389 163.878 13.5925C164.344 13.1339 164.573 12.5224 164.567 11.758C164.56 10.9814 164.315 10.3724 163.83 9.93123C163.356 9.48996 162.697 9.27161 161.852 9.27617L160.426 9.28387Z" fill="white"/>
<path d="M59.0922 32.2641L59.031 25.0153L59.7352 25.0115L59.849 38.4921L59.1448 38.4959L59.1334 37.146C58.4965 38.185 57.5736 38.7078 56.3646 38.7143C55.3904 38.7196 54.554 38.3727 53.8555 37.6738C53.1687 36.9625 52.82 35.9781 52.8094 34.7206C52.7985 33.4385 53.1366 32.4689 53.8237 31.8118C54.5106 31.1423 55.3353 30.805 56.2978 30.7998C57.4951 30.7933 58.4265 31.2815 59.0922 32.2641ZM56.3037 31.5025C55.5173 31.5067 54.8564 31.7877 54.3212 32.3454C53.7977 32.903 53.5402 33.6872 53.5487 34.6981C53.5575 35.746 53.8403 36.5643 54.397 37.1531C54.9535 37.7295 55.6192 38.0156 56.3939 38.0115C57.1568 38.0073 57.8058 37.7141 58.3409 37.1318C58.8876 36.5371 59.1565 35.7158 59.1477 34.6679C59.14 33.7556 58.8812 32.9988 58.3714 32.3975C57.8615 31.7961 57.1723 31.4978 56.3037 31.5025Z" fill="white"/>
<path d="M62.3141 30.9338L63.0184 30.93L63.0821 38.4746L62.3778 38.4784L62.3141 30.9338ZM63.0894 28.9139C62.9731 29.0378 62.8269 29.1002 62.6508 29.1012C62.4747 29.1021 62.3216 29.0413 62.1915 28.9187C62.0729 28.7837 62.0128 28.6176 62.0112 28.4204C62.0095 28.2231 62.0669 28.0626 62.1832 27.9386C62.3112 27.8023 62.4632 27.7337 62.6393 27.7328C62.8153 27.7318 62.9626 27.7988 63.0811 27.9338C63.2113 28.0564 63.2772 28.2163 63.2789 28.4135C63.2805 28.6108 63.2174 28.7776 63.0894 28.9139Z" fill="white"/>
<path d="M71.4625 30.8844L72.1668 30.8806L72.2286 38.2033C72.2405 39.6211 71.927 40.72 71.288 41.5001C70.6608 42.2925 69.7838 42.6918 68.657 42.6979C67.6827 42.7031 66.8586 42.4179 66.1847 41.8421C65.5226 41.2785 65.1638 40.4914 65.1083 39.4808L65.8478 39.4768C65.913 40.2532 66.1999 40.868 66.7085 41.3214C67.2288 41.7748 67.8763 41.9994 68.651 41.9952C69.1792 41.9923 69.6361 41.8789 70.0215 41.6549C70.4188 41.4309 70.7101 41.1765 70.8955 40.892C71.0809 40.6074 71.2247 40.2615 71.3269 39.8541C71.4291 39.4467 71.4852 39.132 71.495 38.91C71.5166 38.688 71.5264 38.4537 71.5243 38.2071L71.5153 37.1346C70.8429 38.1369 69.9022 38.6412 68.6932 38.6478C67.7424 38.6529 66.912 38.306 66.2017 37.6071C65.4915 36.9082 65.1312 35.9362 65.1207 34.6911C65.1112 33.5693 65.432 32.6306 66.0829 31.875C66.7339 31.1195 67.6111 30.7387 68.7144 30.7328C69.8882 30.7264 70.8079 31.2146 71.4736 32.1973L71.4625 30.8844ZM70.7177 32.3493C70.1961 31.7357 69.5068 31.4312 68.6499 31.4358C67.7931 31.4405 67.1091 31.7647 66.5981 32.4085C66.0986 33.04 65.8528 33.8118 65.8605 34.7241C65.8683 35.6487 66.1271 36.4178 66.6371 37.0315C67.1587 37.6451 67.8363 37.9497 68.6697 37.9452C69.5383 37.9405 70.234 37.6223 70.7569 36.9908C71.2798 36.3592 71.5373 35.5688 71.5292 34.6195C71.5216 33.7196 71.2511 32.9629 70.7177 32.3493Z" fill="white"/>
<path d="M74.6939 30.8669L75.3982 30.8631L75.4619 38.4078L74.7576 38.4116L74.6939 30.8669ZM75.4692 28.847C75.3529 28.9709 75.2067 29.0334 75.0306 29.0343C74.8545 29.0353 74.7014 28.9744 74.5712 28.8519C74.4527 28.7169 74.3926 28.5508 74.391 28.3535C74.3893 28.1563 74.4466 27.9957 74.563 27.8718C74.6909 27.7355 74.843 27.6669 75.019 27.6659C75.1951 27.665 75.3424 27.732 75.4609 27.8669C75.5911 27.9895 75.657 28.1494 75.6587 28.3467C75.6603 28.5439 75.5972 28.7107 75.4692 28.847Z" fill="white"/>
<path d="M79.9395 31.5413L78.6894 31.5481L78.7472 38.3901L78.0429 38.3939L77.9851 31.5519L77.1928 31.5561L77.1869 30.8534L77.9792 30.8492L77.9564 28.1494L78.6607 28.1456L78.6835 30.8454L79.9336 30.8386L79.9395 31.5413Z" fill="white"/>
<path d="M87.2046 32.1123L87.1935 30.7994L87.8978 30.7956L87.9614 38.3403L87.2572 38.3441L87.2458 36.9942C86.6089 38.0332 85.6801 38.556 84.4594 38.5626C83.4852 38.5679 82.6546 38.2087 81.9676 37.485C81.2807 36.7613 80.9322 35.8016 80.9221 34.6058C80.9122 33.4346 81.227 32.4837 81.8664 31.7528C82.5059 31.022 83.3479 30.6537 84.3926 30.6481C85.5899 30.6416 86.5272 31.1297 87.2046 32.1123ZM84.4337 31.3506C83.6708 31.3547 83.0159 31.648 82.4691 32.2304C81.9222 32.8004 81.6529 33.5724 81.6611 34.5463C81.6687 35.4463 81.9277 36.2277 82.438 36.8907C82.9483 37.5414 83.6377 37.8643 84.5063 37.8597C85.3632 37.855 86.0354 37.5309 86.523 36.8871C87.0222 36.231 87.2679 35.4407 87.2601 34.5161C87.2514 33.4929 86.9573 32.7116 86.3775 32.1723C85.7977 31.6206 85.1498 31.3467 84.4337 31.3506Z" fill="white"/>
<path d="M90.3764 24.8461L91.0807 24.8423L91.1945 38.3228L90.4902 38.3266L90.3764 24.8461Z" fill="white"/>
<path d="M103.625 32.0237L103.614 30.7108L104.318 30.7069L104.382 38.2516L103.678 38.2554L103.666 36.9055C103.029 37.9446 102.101 38.4674 100.88 38.474C99.9056 38.4792 99.075 38.12 98.388 37.3964C97.7011 36.6727 97.3526 35.7129 97.3425 34.5171C97.3326 33.346 97.6474 32.395 98.2868 31.6642C98.9263 30.9333 99.7683 30.5651 100.813 30.5594C102.01 30.553 102.948 31.0411 103.625 32.0237ZM100.854 31.2619C100.091 31.2661 99.4363 31.5593 98.8895 32.1417C98.3426 32.7118 98.0733 33.4838 98.0815 34.4577C98.0891 35.3576 98.3481 36.1391 98.8584 36.802C99.3687 37.4527 100.058 37.7757 100.927 37.771C101.784 37.7664 102.456 37.4422 102.943 36.7985C103.443 36.1424 103.688 35.352 103.68 34.4274C103.672 33.4042 103.378 32.6229 102.798 32.0836C102.218 31.532 101.57 31.2581 100.854 31.2619Z" fill="white"/>
<path d="M112.763 30.6613L113.467 30.6575L113.529 37.9803C113.541 39.398 113.227 40.497 112.588 41.2771C111.961 42.0695 111.084 42.4688 109.957 42.4749C108.983 42.4801 108.159 42.1949 107.485 41.6191C106.823 41.0555 106.464 40.2684 106.409 39.2578L107.148 39.2538C107.213 40.0301 107.5 40.645 108.009 41.0984C108.529 41.5518 109.177 41.7764 109.951 41.7722C110.48 41.7693 110.936 41.6559 111.322 41.4319C111.719 41.2078 112.01 40.9535 112.196 40.669C112.381 40.3844 112.525 40.0384 112.627 39.6311C112.729 39.2237 112.785 38.909 112.795 38.687C112.817 38.465 112.827 38.2307 112.825 37.9841L112.816 36.9116C112.143 37.9138 111.203 38.4182 109.994 38.4248C109.043 38.4299 108.212 38.083 107.502 37.3841C106.792 36.6852 106.432 35.7132 106.421 34.4681C106.412 33.3463 106.732 32.4076 107.383 31.652C108.034 30.8965 108.911 30.5157 110.015 30.5098C111.189 30.5034 112.108 30.9916 112.774 31.9743L112.763 30.6613ZM112.018 32.1263C111.496 31.5127 110.807 31.2082 109.95 31.2128C109.093 31.2175 108.409 31.5417 107.898 32.1855C107.399 32.817 107.153 33.5888 107.161 34.5011C107.169 35.4257 107.427 36.1948 107.937 36.8085C108.459 37.4221 109.137 37.7267 109.97 37.7222C110.839 37.7175 111.534 37.3993 112.057 36.7678C112.58 36.1362 112.838 35.3458 112.83 34.3965C112.822 33.4966 112.551 32.7398 112.018 32.1263Z" fill="white"/>
<path d="M122.453 34.474L116.309 34.5072C116.316 35.4441 116.599 36.207 117.155 36.7957C117.724 37.3844 118.401 37.6766 119.188 37.6724C119.751 37.6693 120.249 37.5126 120.68 37.202C121.112 36.8791 121.443 36.4582 121.673 35.9391L122.275 36.3058C122.01 36.8496 121.621 37.3325 121.108 37.7545C120.595 38.1641 119.939 38.3711 119.141 38.3754C118.049 38.3813 117.183 38.0161 116.543 37.2798C115.903 36.5312 115.578 35.5899 115.569 34.4557C115.558 33.2106 115.89 32.2348 116.565 31.5285C117.252 30.822 118.07 30.4663 119.021 30.4611C119.995 30.4559 120.809 30.8275 121.46 31.576C122.112 32.3245 122.443 33.2905 122.453 34.474ZM116.355 33.8042L121.708 33.7753C121.608 33.0115 121.309 32.3843 120.812 31.8939C120.326 31.4034 119.731 31.16 119.027 31.1638C118.311 31.1677 117.709 31.4237 117.22 31.9318C116.731 32.4276 116.443 33.0517 116.355 33.8042Z" fill="white"/>
<path d="M124.569 38.1426L124.505 30.5979L125.21 30.5941L125.22 31.7776C125.693 30.8751 126.423 30.4212 127.409 30.4158C128.301 30.411 128.967 30.7588 129.408 31.4591C129.646 31.8524 129.768 32.4866 129.776 33.3619L129.816 38.1143L129.112 38.1181L129.071 33.3657C129.066 32.663 128.967 32.1581 128.777 31.8509C128.491 31.3593 128.019 31.1153 127.362 31.1188C126.564 31.1231 125.98 31.4776 125.61 32.1824C125.356 32.6645 125.233 33.3433 125.24 34.2186L125.273 38.1388L124.569 38.1426Z" fill="white"/>
<path d="M138.058 31.32L138.067 32.3C137.379 31.4777 136.548 31.0692 135.574 31.0745C134.705 31.0792 133.992 31.3974 133.434 32.0292C132.875 32.6486 132.6 33.4268 132.608 34.3637C132.617 35.3746 132.923 36.1681 133.526 36.7443C134.13 37.3082 134.819 37.588 135.593 37.5838C136.544 37.5787 137.409 37.124 138.188 36.2198L138.196 37.2184C137.451 37.9251 136.579 38.2812 135.582 38.2866C134.502 38.2924 133.612 37.9274 132.914 37.1914C132.227 36.4431 131.878 35.508 131.869 34.3862C131.859 33.2397 132.192 32.2886 132.866 31.5329C133.54 30.7649 134.441 30.3779 135.568 30.3718C136.495 30.3668 137.325 30.6828 138.058 31.32Z" fill="white"/>
<path d="M140.781 42.3084L142.437 38.1756L138.956 30.5199L139.766 30.5155L142.834 37.2118L145.4 30.4851L146.21 30.4807L141.591 42.3041L140.781 42.3084Z" fill="white"/>
<rect width="45.8595" height="48.243" rx="22.9298" transform="matrix(0.999994 -0.00408659 0.0108974 0.999947 0.0205078 0.855408)" fill="black"/>
<rect x="1.01089" y="0.99586" width="41.1619" height="43.4052" rx="20.581" transform="matrix(0.999994 -0.00408659 0.0108974 0.999947 1.3749 2.27176)" fill="black" stroke="#FFB800" stroke-width="2"/>
<path d="M14.4739 20.7776L10.1019 20.7954L10.078 18.6055L21.0742 18.5605L21.0981 20.7505L16.7261 20.7684L16.8487 32.0168L14.5964 32.026L14.4739 20.7776Z" fill="#FFB800"/>
<path d="M23.7494 30.2564C22.4732 28.9343 21.8242 27.2779 21.8026 25.287C21.7809 23.2961 22.4062 21.6278 23.6786 20.282C24.9385 18.9496 26.54 18.2794 28.4831 18.2714C29.8079 18.266 31.0039 18.5929 32.071 19.2522C33.1507 19.9115 33.9681 20.8107 34.5231 21.9499L32.337 22.815C31.9506 22.0998 31.4209 21.5445 30.7479 21.1491C30.0748 20.7536 29.3282 20.5576 28.508 20.5609C27.2715 20.566 26.2292 21.0215 25.381 21.9276C24.5453 22.8203 24.1347 23.9302 24.1492 25.2575C24.164 26.6113 24.5799 27.7312 25.3971 28.6171C26.2144 29.5031 27.2223 29.9436 28.421 29.9387C29.3547 29.9349 30.2032 29.6394 30.9665 29.0523C31.7047 28.4785 32.1948 27.7199 32.4369 26.7766L28.1596 26.794L28.1359 24.624L34.9683 24.5961C34.9973 24.941 35.0123 25.16 35.0133 25.2529C35.0098 27.2439 34.3906 28.8989 33.1558 30.218C31.9211 31.5503 30.3701 32.2203 28.5027 32.228C26.6101 32.2357 25.0256 31.5785 23.7494 30.2564Z" fill="#FFB800"/>
</svg>
